<mxfile host="app.diagrams.net" agent="Mozilla/5.0 (Windows NT 10.0; Win64; x64) AppleWebKit/537.36 (KHTML, like Gecko) Chrome/131.0.0.0 Safari/537.36 Edg/131.0.0.0" version="25.0.3">
  <diagram name="Page-1" id="EE6vtqVJQqgHfJGsA7h3">
    <mxGraphModel dx="1042" dy="565" grid="1" gridSize="10" guides="1" tooltips="1" connect="1" arrows="1" fold="1" page="1" pageScale="1" pageWidth="850" pageHeight="1100" math="0" shadow="0">
      <root>
        <mxCell id="0" />
        <mxCell id="1" parent="0" />
        <mxCell id="Ryystl6djY1rbMUFXGd--2" style="edgeStyle=orthogonalEdgeStyle;rounded=0;orthogonalLoop=1;jettySize=auto;html=1;" edge="1" parent="1" source="Ryystl6djY1rbMUFXGd--1">
          <mxGeometry relative="1" as="geometry">
            <mxPoint x="240" y="190" as="targetPoint" />
          </mxGeometry>
        </mxCell>
        <mxCell id="Ryystl6djY1rbMUFXGd--1" value="Start" style="strokeWidth=2;html=1;shape=mxgraph.flowchart.start_2;whiteSpace=wrap;" vertex="1" parent="1">
          <mxGeometry x="60" y="140" width="100" height="100" as="geometry" />
        </mxCell>
        <mxCell id="Ryystl6djY1rbMUFXGd--5" style="edgeStyle=orthogonalEdgeStyle;rounded=0;orthogonalLoop=1;jettySize=auto;html=1;" edge="1" parent="1" source="Ryystl6djY1rbMUFXGd--3" target="Ryystl6djY1rbMUFXGd--6">
          <mxGeometry relative="1" as="geometry">
            <mxPoint x="400" y="190" as="targetPoint" />
          </mxGeometry>
        </mxCell>
        <mxCell id="Ryystl6djY1rbMUFXGd--3" value="n, i==1" style="shape=parallelogram;html=1;strokeWidth=2;perimeter=parallelogramPerimeter;whiteSpace=wrap;rounded=1;arcSize=12;size=0.23;" vertex="1" parent="1">
          <mxGeometry x="230" y="160" width="100" height="60" as="geometry" />
        </mxCell>
        <mxCell id="Ryystl6djY1rbMUFXGd--9" style="edgeStyle=orthogonalEdgeStyle;rounded=0;orthogonalLoop=1;jettySize=auto;html=1;" edge="1" parent="1" source="Ryystl6djY1rbMUFXGd--4">
          <mxGeometry relative="1" as="geometry">
            <mxPoint x="780" y="190" as="targetPoint" />
          </mxGeometry>
        </mxCell>
        <mxCell id="Ryystl6djY1rbMUFXGd--16" style="edgeStyle=orthogonalEdgeStyle;rounded=0;orthogonalLoop=1;jettySize=auto;html=1;entryX=0.5;entryY=0;entryDx=0;entryDy=0;" edge="1" parent="1" source="Ryystl6djY1rbMUFXGd--4" target="Ryystl6djY1rbMUFXGd--13">
          <mxGeometry relative="1" as="geometry">
            <mxPoint x="1010" y="80" as="targetPoint" />
            <Array as="points">
              <mxPoint x="660" y="80" />
              <mxPoint x="1010" y="80" />
            </Array>
          </mxGeometry>
        </mxCell>
        <mxCell id="Ryystl6djY1rbMUFXGd--4" value="n%i==0" style="strokeWidth=2;html=1;shape=mxgraph.flowchart.decision;whiteSpace=wrap;" vertex="1" parent="1">
          <mxGeometry x="610" y="140" width="100" height="100" as="geometry" />
        </mxCell>
        <mxCell id="Ryystl6djY1rbMUFXGd--7" style="edgeStyle=orthogonalEdgeStyle;rounded=0;orthogonalLoop=1;jettySize=auto;html=1;entryX=0;entryY=0.5;entryDx=0;entryDy=0;entryPerimeter=0;" edge="1" parent="1" source="Ryystl6djY1rbMUFXGd--6" target="Ryystl6djY1rbMUFXGd--4">
          <mxGeometry relative="1" as="geometry">
            <mxPoint x="580" y="190" as="targetPoint" />
          </mxGeometry>
        </mxCell>
        <mxCell id="Ryystl6djY1rbMUFXGd--21" style="edgeStyle=orthogonalEdgeStyle;rounded=0;orthogonalLoop=1;jettySize=auto;html=1;entryX=0.5;entryY=0;entryDx=0;entryDy=0;entryPerimeter=0;" edge="1" parent="1" source="Ryystl6djY1rbMUFXGd--6" target="Ryystl6djY1rbMUFXGd--20">
          <mxGeometry relative="1" as="geometry">
            <mxPoint x="1220" y="40" as="targetPoint" />
            <Array as="points">
              <mxPoint x="470" y="40" />
              <mxPoint x="1210" y="40" />
            </Array>
          </mxGeometry>
        </mxCell>
        <mxCell id="Ryystl6djY1rbMUFXGd--6" value="i&amp;lt;=n" style="strokeWidth=2;html=1;shape=mxgraph.flowchart.decision;whiteSpace=wrap;" vertex="1" parent="1">
          <mxGeometry x="420" y="140" width="100" height="100" as="geometry" />
        </mxCell>
        <mxCell id="Ryystl6djY1rbMUFXGd--8" value="true" style="text;html=1;align=center;verticalAlign=middle;resizable=0;points=[];autosize=1;strokeColor=none;fillColor=none;" vertex="1" parent="1">
          <mxGeometry x="530" y="158" width="40" height="30" as="geometry" />
        </mxCell>
        <mxCell id="Ryystl6djY1rbMUFXGd--10" value="true" style="text;html=1;align=center;verticalAlign=middle;resizable=0;points=[];autosize=1;strokeColor=none;fillColor=none;" vertex="1" parent="1">
          <mxGeometry x="710" y="168" width="40" height="30" as="geometry" />
        </mxCell>
        <mxCell id="Ryystl6djY1rbMUFXGd--12" style="edgeStyle=orthogonalEdgeStyle;rounded=0;orthogonalLoop=1;jettySize=auto;html=1;" edge="1" parent="1" source="Ryystl6djY1rbMUFXGd--11">
          <mxGeometry relative="1" as="geometry">
            <mxPoint x="960" y="190" as="targetPoint" />
          </mxGeometry>
        </mxCell>
        <mxCell id="Ryystl6djY1rbMUFXGd--11" value="Print i" style="rounded=1;whiteSpace=wrap;html=1;absoluteArcSize=1;arcSize=14;strokeWidth=2;" vertex="1" parent="1">
          <mxGeometry x="780" y="140" width="100" height="100" as="geometry" />
        </mxCell>
        <mxCell id="Ryystl6djY1rbMUFXGd--14" style="edgeStyle=orthogonalEdgeStyle;rounded=0;orthogonalLoop=1;jettySize=auto;html=1;exitX=0.5;exitY=1;exitDx=0;exitDy=0;" edge="1" parent="1" source="Ryystl6djY1rbMUFXGd--13">
          <mxGeometry relative="1" as="geometry">
            <mxPoint x="350" y="190" as="targetPoint" />
            <mxPoint x="1010" y="320" as="sourcePoint" />
            <Array as="points">
              <mxPoint x="1010" y="350" />
              <mxPoint x="351" y="350" />
            </Array>
          </mxGeometry>
        </mxCell>
        <mxCell id="Ryystl6djY1rbMUFXGd--13" value="i++" style="rounded=1;whiteSpace=wrap;html=1;absoluteArcSize=1;arcSize=14;strokeWidth=2;" vertex="1" parent="1">
          <mxGeometry x="960" y="140" width="100" height="100" as="geometry" />
        </mxCell>
        <mxCell id="Ryystl6djY1rbMUFXGd--19" value="false" style="text;html=1;align=center;verticalAlign=middle;resizable=0;points=[];autosize=1;strokeColor=none;fillColor=none;" vertex="1" parent="1">
          <mxGeometry x="625" y="108" width="50" height="30" as="geometry" />
        </mxCell>
        <mxCell id="Ryystl6djY1rbMUFXGd--20" value="End" style="strokeWidth=2;html=1;shape=mxgraph.flowchart.start_2;whiteSpace=wrap;" vertex="1" parent="1">
          <mxGeometry x="1160" y="140" width="100" height="100" as="geometry" />
        </mxCell>
        <mxCell id="Ryystl6djY1rbMUFXGd--22" value="false" style="text;html=1;align=center;verticalAlign=middle;resizable=0;points=[];autosize=1;strokeColor=none;fillColor=none;" vertex="1" parent="1">
          <mxGeometry x="435" y="88" width="50" height="30" as="geometry" />
        </mxCell>
      </root>
    </mxGraphModel>
  </diagram>
</mxfile>
